<?xml version="1.0" encoding="UTF-8" standalone="no"?>
<!DOCTYPE svg PUBLIC "-//W3C//DTD SVG 20010904//EN"
              "http://www.w3.org/TR/2001/REC-SVG-20010904/DTD/svg10.dtd">

<svg xmlns="http://www.w3.org/2000/svg"
     width="132.275mm" height="132.275mm"
     viewBox="0 0 500 500">
  <path id="Selection"
        fill="#00c853" stroke="black" stroke-width="0.1"
        d="M 190.00,117.00
           C 190.00,117.00 193.00,122.00 193.00,122.00
             193.00,122.00 167.00,138.00 167.00,138.00
             172.88,140.87 189.03,150.45 193.00,155.00
             193.00,155.00 189.00,158.00 189.00,158.00
             189.00,158.00 168.00,144.58 168.00,144.58
             164.97,142.64 161.26,140.45 162.31,136.19
             163.04,133.24 167.54,130.95 170.00,129.42
             170.00,129.42 190.00,117.00 190.00,117.00 Z
           M 298.00,117.00
           C 298.00,117.00 320.00,130.32 320.00,130.32
             323.23,132.41 326.70,134.39 325.67,138.91
             324.88,142.38 320.79,144.45 318.00,146.19
             311.87,150.01 304.41,155.14 298.00,158.00
             298.00,158.00 296.00,153.00 296.00,153.00
             296.00,153.00 321.00,139.00 321.00,139.00
             316.48,133.34 302.74,125.77 296.00,122.00
             296.00,122.00 298.00,117.00 298.00,117.00 Z
           M 220.06,149.78
           C 229.48,148.45 229.78,159.18 222.98,160.67
             216.64,162.06 212.90,154.01 220.06,149.78 Z
           M 132.31,216.04
           C 139.23,213.93 138.51,221.29 136.43,222.81
             133.39,225.03 127.45,221.30 132.31,216.04 Z
           M 320.00,266.00
           C 313.90,268.54 308.04,267.08 306.20,260.00
             306.20,260.00 306.20,224.00 306.20,224.00
             306.03,218.95 305.55,216.96 311.00,216.00
             311.00,216.00 311.00,244.00 311.00,244.00
             311.00,244.00 311.89,257.94 311.89,257.94
             311.89,257.94 320.00,266.00 320.00,266.00 Z
           M 428.00,216.00
           C 432.93,216.87 432.91,218.20 433.00,223.00
             433.00,223.00 433.00,247.00 433.00,247.00
             433.00,247.00 449.00,233.57 449.00,233.57
             453.84,230.24 455.91,232.26 454.83,235.05
             453.00,239.81 443.17,243.93 443.91,249.00
             444.63,253.90 453.52,257.30 455.00,267.00
             448.88,266.52 447.26,263.47 443.28,259.00
             441.76,257.29 439.48,254.14 437.04,253.88
             432.06,253.34 433.33,261.14 432.87,263.89
             432.60,265.48 431.57,267.78 429.52,266.60
             427.60,265.49 428.00,260.94 428.00,259.00
             428.00,259.00 428.00,216.00 428.00,216.00 Z
           M 45.00,247.00
           C 45.00,250.19 45.37,262.70 44.40,264.84
             43.21,267.48 40.79,267.48 39.60,264.84
             38.88,263.25 39.00,259.80 39.00,258.00
             39.00,258.00 39.00,227.00 39.00,227.00
             39.00,225.01 38.77,221.19 40.02,219.60
             41.59,217.62 45.70,218.00 48.00,218.00
             53.36,217.99 63.55,217.11 67.89,220.01
             74.86,224.65 74.86,240.51 67.89,245.15
             63.69,247.94 50.45,247.00 45.00,247.00 Z
           M 287.00,240.00
           C 290.90,242.51 291.97,244.33 292.70,249.00
             295.27,265.48 285.65,267.98 272.00,268.00
             268.73,268.01 259.03,268.78 256.99,266.26
             255.75,264.72 256.00,260.94 256.00,259.00
             256.00,259.00 256.00,231.00 256.00,231.00
             256.00,228.46 255.56,221.45 257.02,219.60
             258.59,217.62 262.70,218.00 265.00,218.00
             276.42,217.98 292.71,215.29 289.78,233.00
             289.32,235.75 288.23,237.56 287.00,240.00 Z
           M 45.00,242.00
           C 49.11,242.00 60.76,242.63 63.86,240.83
             69.04,237.81 69.11,227.30 63.86,224.31
             60.46,222.39 49.35,223.00 45.00,223.00
             45.00,223.00 45.00,242.00 45.00,242.00 Z
           M 197.00,231.00
           C 198.96,230.84 200.88,230.91 202.40,229.40
             204.17,227.66 204.32,221.21 207.46,223.17
             209.24,224.28 208.71,227.54 210.60,229.40
             213.23,231.99 218.27,230.07 219.83,232.54
             222.57,236.87 210.56,236.00 209.00,236.00
             209.00,241.08 208.21,253.91 210.45,257.89
             213.38,263.10 220.68,261.52 219.28,265.61
             218.17,268.86 208.82,267.49 205.57,261.90
             202.97,257.41 204.00,241.85 204.00,236.00
             199.21,235.83 197.88,236.03 197.00,231.00 Z
           M 261.00,238.00
           C 261.00,238.00 276.00,238.00 276.00,238.00
             286.73,237.80 285.58,228.43 283.15,225.43
             280.47,222.13 272.04,222.93 268.00,223.00
             266.05,223.04 263.37,222.90 262.02,224.60
             260.50,226.52 261.00,235.23 261.00,238.00 Z
           M 91.00,231.57
           C 97.54,230.38 110.02,229.54 114.57,235.11
             116.92,237.97 116.95,240.50 117.00,244.00
             117.11,252.42 119.18,263.63 109.00,266.70
             102.25,268.73 90.28,268.95 85.51,262.89
             82.74,259.38 83.01,255.21 83.00,251.00
             82.99,242.60 81.69,235.31 91.00,231.57 Z
           M 132.00,231.00
           C 132.00,231.00 137.00,231.00 137.00,231.00
             137.00,231.00 137.00,261.00 137.00,261.00
             136.97,262.64 136.85,268.51 133.52,266.60
             131.86,265.64 132.03,262.64 132.00,261.00
             132.00,261.00 132.00,231.00 132.00,231.00 Z
           M 153.00,231.00
           C 156.21,231.28 156.73,230.94 158.00,234.00
             165.30,230.93 179.53,227.72 184.59,236.10
             187.89,241.57 187.12,253.46 187.00,260.00
             186.96,261.98 187.04,265.80 184.74,266.66
             180.63,268.21 181.00,260.01 181.00,258.00
             180.99,252.97 182.16,242.02 178.57,238.43
             174.44,234.30 163.08,235.65 159.60,240.22
             157.71,242.70 158.01,246.05 158.00,249.00
             158.00,249.00 158.00,260.00 158.00,260.00
             157.99,261.80 158.28,265.56 156.48,266.60
             152.57,268.85 153.00,260.62 153.00,259.00
             153.00,259.00 153.00,231.00 153.00,231.00 Z
           M 331.00,241.00
           C 331.89,230.03 339.49,230.99 348.00,231.00
             353.86,231.01 358.65,230.96 361.69,237.02
             363.71,241.04 363.08,255.82 363.00,261.00
             362.97,262.64 363.14,265.64 361.48,266.60
             358.91,268.08 358.27,264.58 358.00,263.00
             351.69,267.46 343.43,269.79 336.02,266.35
             329.13,263.16 327.56,251.47 333.23,246.43
             338.18,242.03 348.41,245.33 358.00,243.00
             357.08,241.04 356.41,239.23 354.61,237.85
             351.68,235.60 343.42,235.45 340.04,236.73
             335.77,238.36 337.03,240.00 331.00,241.00 Z
           M 379.00,231.00
           C 379.00,231.00 384.00,231.00 384.00,231.00
             384.00,231.00 384.00,235.00 384.00,235.00
             386.05,233.55 387.53,232.41 390.00,231.65
             396.82,229.55 408.27,230.28 411.26,238.00
             412.45,241.07 412.07,256.75 412.00,261.00
             411.87,268.77 408.66,267.18 407.59,264.81
             406.88,263.22 407.00,259.80 407.00,258.00
             406.99,252.97 408.16,242.02 404.57,238.43
             400.84,234.70 389.09,235.42 385.74,239.43
             383.69,241.88 384.00,245.97 384.00,249.00
             384.00,249.00 384.00,260.00 384.00,260.00
             383.99,261.80 384.28,265.56 382.48,266.60
             378.57,268.85 379.00,260.62 379.00,259.00
             379.00,259.00 379.00,231.00 379.00,231.00 Z
           M 94.02,236.43
           C 92.04,237.26 91.24,237.32 89.85,239.23
             87.02,243.13 87.16,256.10 90.51,259.69
             92.85,262.19 95.87,261.98 99.00,262.00
             102.16,262.02 107.06,262.40 109.53,260.26
             113.15,257.22 113.07,240.90 109.53,237.85
             106.46,235.28 97.81,235.85 94.02,236.43 Z
           M 261.00,262.00
           C 261.00,262.00 276.00,262.00 276.00,262.00
             278.81,261.98 282.39,262.16 284.69,260.26
             287.73,257.75 287.90,248.52 285.26,245.70
             282.06,242.27 272.50,242.92 268.00,243.00
             266.38,243.03 263.94,242.96 262.60,244.02
             260.90,245.37 261.04,248.05 261.00,250.00
             261.00,250.00 261.00,262.00 261.00,262.00 Z
           M 358.00,249.00
           C 358.00,249.00 344.00,249.00 344.00,249.00
             338.48,249.08 334.14,250.14 335.24,256.96
             336.37,263.93 350.41,263.17 354.77,259.99
             358.48,257.30 357.99,253.06 358.00,249.00 Z" />
</svg>
